<?xml version="1.0" encoding="utf-8"?>
<!-- Generator: Adobe Illustrator 24.1.2, SVG Export Plug-In . SVG Version: 6.00 Build 0)  -->
<svg version="1.1" id="Layer_1" xmlns="http://www.w3.org/2000/svg" xmlns:xlink="http://www.w3.org/1999/xlink" x="0px" y="0px"
	 viewBox="0 0 24 24" style="enable-background:new 0 0 24 24;" xml:space="preserve">
<style type="text/css">
	.st0{fill-rule:evenodd;clip-rule:evenodd;fill:#0394DC;}
</style>
<path class="st0" d="M12,0C5.4,0,0,5.4,0,12s5.4,12,12,12s12-5.4,12-12S18.6,0,12,0z M12,2c5.5,0,10,4.5,10,10s-4.5,10-10,10
	S2,17.5,2,12S6.5,2,12,2z M12,6.5c-3.3,0-6,2.5-6,5.6c0,1.7,0.9,3.3,2.2,4.3v2.1l2-1.1c0.5,0.2,1.1,0.2,1.7,0.2c3.3,0,6-2.5,6-5.6
	C18,9,15.3,6.5,12,6.5z M12.6,14l-1.5-1.6l-3,1.6l3.3-3.5l1.6,1.6l2.9-1.6C15.9,10.5,12.6,14,12.6,14z"/>
</svg>
