<?xml version="1.0" encoding="UTF-8"?>
<!DOCTYPE svg PUBLIC "-//W3C//DTD SVG 1.1//EN" "http://www.w3.org/Graphics/SVG/1.1/DTD/svg11.dtd">
<!-- Creator: CorelDRAW 2019 (64-Bit) -->
<svg xmlns="http://www.w3.org/2000/svg" xml:space="preserve" width="12.7mm" height="17.9614mm" version="1.1" style="shape-rendering:geometricPrecision; text-rendering:geometricPrecision; image-rendering:optimizeQuality; fill-rule:evenodd; clip-rule:evenodd"
viewBox="0 0 13 18"
 xmlns:xlink="http://www.w3.org/1999/xlink"
 xmlns:xodm="http://www.corel.com/coreldraw/odm/2003">
 <defs>
  <style type="text/css">
   <![CDATA[
    .fil0 {fill:#0D84BC;fill-rule:nonzero}
   ]]>
  </style>
 </defs>
 <g id="Layer_x0020_1">
  <metadata id="CorelCorpID_0Corel-Layer"/>
  <g id="_1387581229168">
   <path class="fil0" d="M5 7c0,0 0,0 0,0 0,0 0,0 0,0l0 0 0 0 0 0 0 0c0,0 0,0 0,0l0 0 0 0 0 0 0 0c0,0 0,0 0,0l0 0 0 0 0 0 0 0c0,0 0,0 0,0l0 0 0 0c0,0 0,0 0,0l0 0zm0 0c0,0 0,0 0,0 0,0 0,0 0,0 0,0 0,0 0,0l0 0 0 0c0,0 0,0 0,0 0,0 0,0 0,0l0 0 0 0c0,0 0,0 0,0 0,0 0,0 0,0 0,0 0,0 0,0l0 0z"/>
   <path class="fil0" d="M5 8c0,0 0,0 0,0l0 0 0 0c0,0 0,0 0,0l0 0 0 0c0,0 0,0 0,0 0,0 0,0 0,0l0 0 0 0c0,0 0,0 0,0l0 0 0 0c0,0 0,0 0,0 0,0 0,0 0,0l0 0z"/>
  </g>
 </g>
</svg>
