<?xml version="1.0" encoding="utf-8"?>
<!-- Generator: Adobe Illustrator 24.1.2, SVG Export Plug-In . SVG Version: 6.00 Build 0)  -->
<svg version="1.1" id="Layer_1" xmlns="http://www.w3.org/2000/svg" xmlns:xlink="http://www.w3.org/1999/xlink" x="0px" y="0px"
	 viewBox="0 0 24 24" style="enable-background:new 0 0 24 24;" xml:space="preserve">
<style type="text/css">
	.st0{fill:#0394DC;}
</style>
<path class="st0" d="M12,2c5.5,0,10,4.5,10,10s-4.5,10-10,10S2,17.5,2,12S6.5,2,12,2z M12,0C5.4,0,0,5.4,0,12s5.4,12,12,12
	s12-5.4,12-12S18.6,0,12,0z M17.5,13c0.7-3.9-2.7-7.2-6.5-6.5C8.1,4.7,4.7,8.1,6.5,11c-0.7,3.9,2.7,7.2,6.5,6.5
	C16,19.3,19.3,15.9,17.5,13z M12.2,15.9c-1.6,0-3.2-0.7-3.2-2c0-0.4,0.3-0.7,0.7-0.7c0.9,0,0.9,1.4,2.4,1.4c1,0,1.4-0.6,1.4-1
	c0-1.4-4.5-0.6-4.5-3.3c0-1.5,1.2-2.5,3.1-2.4c1.8,0.1,2.9,0.9,3,1.6c0.1,0.5-0.3,0.9-0.8,0.9c-0.8,0-0.9-1.1-2.3-1.1
	c-0.6,0-1.2,0.3-1.2,0.8c0,1.2,4.5,0.5,4.5,3.1C15.2,14.9,14,15.9,12.2,15.9z"/>
</svg>
