<?xml version="1.0" encoding="utf-8"?>
<!-- Generator: Adobe Illustrator 24.1.2, SVG Export Plug-In . SVG Version: 6.00 Build 0)  -->
<svg version="1.1" id="Layer_1" xmlns="http://www.w3.org/2000/svg" xmlns:xlink="http://www.w3.org/1999/xlink" x="0px" y="0px"
	 viewBox="0 0 24 24" style="enable-background:new 0 0 24 24;" xml:space="preserve">
<style type="text/css">
	.st0{fill:#0394DC;}
</style>
<path class="st0" d="M12,2c5.5,0,10,4.5,10,10s-4.5,10-10,10S2,17.5,2,12S6.5,2,12,2z M12,0C5.4,0,0,5.4,0,12s5.4,12,12,12
	s12-5.4,12-12S18.6,0,12,0z M12.6,16c0.3,0,0.4-0.2,0.4-0.5c0-1,0.4-1.5,1-0.8c0.7,0.7,0.9,1.3,1.8,1.3h1.6c0.4,0,0.6-0.1,0.6-0.3
	c0-0.4-0.7-1.2-1.3-1.8c-0.8-0.8-0.9-0.8-0.2-1.7c0.9-1.2,2.1-2.7,1-2.7h-2c-0.4,0-0.4,0.2-0.6,0.5c-0.5,1.2-1.4,2.7-1.8,2.5
	c-0.4-0.2-0.2-1.2-0.2-2.6c0-0.4,0-0.6-0.6-0.8C12.2,9,11.9,9,11.6,9c-1.1,0-1.9,0.5-1.5,0.6c0.8,0.1,0.7,1.8,0.5,2.6
	c-0.3,1.3-1.5-1-2-2.2C8.5,9.7,8.5,9.5,8,9.5H6.4C6.1,9.5,6,9.6,6,9.8c0,0.3,1.5,3.4,2.9,4.9C10.3,16.1,11.6,16,12.6,16z"/>
</svg>
