<?xml version="1.0" encoding="utf-8"?>
<!-- Generator: Adobe Illustrator 24.1.2, SVG Export Plug-In . SVG Version: 6.00 Build 0)  -->
<svg version="1.1" id="Layer_1" xmlns="http://www.w3.org/2000/svg" xmlns:xlink="http://www.w3.org/1999/xlink" x="0px" y="0px"
	 viewBox="0 0 24 24" style="enable-background:new 0 0 24 24;" xml:space="preserve">
<style type="text/css">
	.st0{fill:#0394DC;}
</style>
<path class="st0" d="M12,2c5.5,0,10,4.5,10,10s-4.5,10-10,10S2,17.5,2,12S6.5,2,12,2z M12,0C5.4,0,0,5.4,0,12s5.4,12,12,12
	s12-5.4,12-12S18.6,0,12,0z M6,18l0.8-3.1c-0.5-0.9-0.8-1.9-0.8-3C6.1,8.7,8.7,6,12,6c1.6,0,3.1,0.6,4.2,1.7C17.4,8.9,18,10.4,18,12
	c0,3.3-2.7,5.9-5.9,5.9c-1,0-2-0.3-2.8-0.7C9.2,17.2,6,18,6,18z M9.3,16.1c0.8,0.5,1.6,0.8,2.7,0.8c2.7,0,4.9-2.2,4.9-4.9
	C17,9.2,14.8,7,12,7c-2.7,0-4.9,2.2-4.9,4.9c0,1.1,0.3,1.9,0.9,2.8l-0.5,1.8C7.5,16.6,9.3,16.1,9.3,16.1z M15,13.4
	c0-0.1-0.1-0.1-0.3-0.2c-0.1-0.1-0.9-0.4-1-0.5c-0.1-0.1-0.2-0.1-0.3,0.1c-0.1,0.1-0.4,0.5-0.5,0.6c-0.1,0.1-0.2,0.1-0.3,0
	c-0.1-0.1-0.6-0.2-1.2-0.7c-0.4-0.4-0.7-0.9-0.8-1c-0.1-0.1,0-0.2,0.1-0.3l0.2-0.3l0.1-0.2c0.1-0.1,0-0.2,0-0.3l-0.5-1.1
	c-0.1-0.3-0.2-0.3-0.3-0.3l-0.3,0c-0.1,0-0.3,0-0.4,0.2S9,9.9,9,10.6c0,0.7,0.5,1.4,0.6,1.5c0.1,0.1,1,1.6,2.5,2.2
	c0.4,0.2,0.6,0.2,0.8,0.3c0.4,0.1,0.7,0.1,0.9,0.1c0.3,0,0.9-0.4,1-0.7C15.1,13.7,15.1,13.4,15,13.4z"/>
</svg>
